HIERARCHY
ROOT Hips
{
	OFFSET 0.000000 0.000000 0.000000
	CHANNELS 6 Xposition Yposition Zposition Zrotation Yrotation Xrotation 
	JOINT LHipJoint
	{
		OFFSET 0.000000 0.000000 0.000000
		CHANNELS 3 Zrotation Yrotation Xrotation
		JOINT LeftUpLeg
		{
			OFFSET 1.363060 -1.794630 0.839290
			CHANNELS 3 Zrotation Yrotation Xrotation
			JOINT LeftLeg
			{
				OFFSET 2.448110 -6.726130 0.000000
				CHANNELS 3 Zrotation Yrotation Xrotation
				JOINT LeftFoot
				{
					OFFSET 2.562200 -7.039590 0.000000
					CHANNELS 3 Zrotation Yrotation Xrotation
					JOINT LeftToeBase
					{
						OFFSET 0.157640 -0.433110 2.322550
						CHANNELS 3 Zrotation Yrotation Xrotation
						End Site
						{
							OFFSET 0.000000 0.000000 0.000000
						}
					}
				}
			}
		}
	}
	JOINT RHipJoint
	{
		OFFSET 0.000000 0.000000 0.000000
		CHANNELS 3 Zrotation Yrotation Xrotation
		JOINT RightUpLeg
		{
			OFFSET -1.305520 -1.794630 0.839290
			CHANNELS 3 Zrotation Yrotation Xrotation
			JOINT RightLeg
			{
				OFFSET -2.542530 -6.985550 0.000000
				CHANNELS 3 Zrotation Yrotation Xrotation
				JOINT RightFoot
				{
					OFFSET -2.568260 -7.056230 0.000000
					CHANNELS 3 Zrotation Yrotation Xrotation
					JOINT RightToeBase
					{
						OFFSET -0.164730 -0.452590 2.363150
						CHANNELS 3 Zrotation Yrotation Xrotation
						End Site
						{
							OFFSET 0.000000 0.000000 0.000000
						}
					}
				}
			}
		}
	}
	JOINT LowerBack
	{
		OFFSET 0.000000 0.000000 0.000000
		CHANNELS 3 Zrotation Yrotation Xrotation
		JOINT Spine
		{
			OFFSET 0.028270 2.035590 -0.193380
			CHANNELS 3 Zrotation Yrotation Xrotation
			JOINT Spine1
			{
				OFFSET 0.056720 2.048850 -0.042750
				CHANNELS 3 Zrotation Yrotation Xrotation
				JOINT Neck
				{
					OFFSET 0.000000 0.000000 0.000000
					CHANNELS 3 Zrotation Yrotation Xrotation
					JOINT Neck1
					{
						OFFSET -0.054170 1.746240 0.172020
						CHANNELS 3 Zrotation Yrotation Xrotation
						JOINT Head
						{
							OFFSET 0.104070 1.761360 -0.123970
							CHANNELS 3 Zrotation Yrotation Xrotation
							End Site
							{
								OFFSET 0.000000 0.000000 0.000000
							}
						}
					}
				}
				JOINT LeftShoulder
				{
					OFFSET 0.000000 0.000000 0.000000
					CHANNELS 3 Zrotation Yrotation Xrotation
					JOINT LeftArm
					{
						OFFSET 3.362410 1.200890 -0.311210
						CHANNELS 3 Zrotation Yrotation Xrotation
						JOINT LeftForeArm
						{
							OFFSET 4.983000 -0.000000 -0.000000
							CHANNELS 3 Zrotation Yrotation Xrotation
							JOINT LeftHand
							{
								OFFSET 3.483560 -0.000000 -0.000000
								CHANNELS 3 Zrotation Yrotation Xrotation
								JOINT LeftFingerBase
								{
									OFFSET 0.000000 0.000000 0.000000
									CHANNELS 3 Zrotation Yrotation Xrotation
									JOINT LeftHandIndex1
									{
										OFFSET 0.715260 -0.000000 -0.000000
										CHANNELS 3 Zrotation Yrotation Xrotation
										End Site
										{
											OFFSET 0.000000 0.000000 0.000000
										}
									}
								}
								JOINT LThumb
								{
									OFFSET 0.000000 0.000000 0.000000
									CHANNELS 3 Zrotation Yrotation Xrotation
									End Site
									{
										OFFSET 0.000000 0.000000 0.000000
									}
								}
							}
						}
					}
				}
				JOINT RightShoulder
				{
					OFFSET 0.000000 0.000000 0.000000
					CHANNELS 3 Zrotation Yrotation Xrotation
					JOINT RightArm
					{
						OFFSET -3.136600 1.374050 -0.404650
						CHANNELS 3 Zrotation Yrotation Xrotation
						JOINT RightForeArm
						{
							OFFSET -5.241900 -0.000000 -0.000000
							CHANNELS 3 Zrotation Yrotation Xrotation
							JOINT RightHand
							{
								OFFSET -3.444170 -0.000000 -0.000000
								CHANNELS 3 Zrotation Yrotation Xrotation
								JOINT RightFingerBase
								{
									OFFSET 0.000000 0.000000 0.000000
									CHANNELS 3 Zrotation Yrotation Xrotation
									JOINT RightHandIndex1
									{
										OFFSET -0.622530 -0.000000 -0.000000
										CHANNELS 3 Zrotation Yrotation Xrotation
										End Site
										{
											OFFSET 0.000000 0.000000 0.000000
										}
									}
								}
								JOINT RThumb
								{
									OFFSET 0.000000 0.000000 0.000000
									CHANNELS 3 Zrotation Yrotation Xrotation
									End Site
									{
										OFFSET 0.000000 0.000000 0.000000
									}
								}
							}
						}
					}
				}
			}
		}
	}
}
MOTION
Frames: 7
Frame Time: 0.008333
1.284216 15.309888 -1.650624 -1.582447 -29.009214 -5.375303 16.187335 28.425577 -3.194340 -27.808718 -6.581778 -9.304195 -1.044632 15.042121 30.118899 -1.481460 3.394561 -19.671516 0.000000 0.000000 0.000000 -17.126852 -24.095119 -4.141415 24.830738 -1.461796 3.483790 26.405911 -22.767291 24.802179 5.225740 -5.899815 -25.320490 0.000000 0.000000 0.000000 3.147668 1.389660 9.405784 0.502663 3.267481 -3.775485 -0.888637 1.061059 -10.554125 -2.193490 1.398354 1.538220 0.000000 0.000000 0.000000 0.000000 0.000000 0.000000 8.039576 -6.544237 0.434849 -43.622709 -26.446023 -6.532998 87.694227 -82.681680 -0.000000 0.000000 0.000000 0.000000 0.000000 0.000000 0.000000 0.000000 0.000000 0.000000 0.000000 0.000000 0.000000 -6.846864 -1.991014 -13.759234 92.621307 33.325698 50.912417 -105.224164 55.367247 0.000000 0.000000 0.000000 0.000000 0.000000 0.000000 0.000000 0.000000 0.000000 0.000000 0.000000 0.000000 0.000000 
1.287890 15.308521 -1.632347 -1.558946 -29.282155 -5.353146 16.197768 28.437239 -3.164216 -27.780849 -6.485536 -9.254290 -1.074124 15.084611 30.023672 -1.473913 3.475045 -19.576527 0.000000 0.000000 0.000000 -17.128341 -24.076790 -4.204071 24.848617 -1.423608 3.458435 26.262575 -22.774372 24.963670 5.215488 -5.883346 -25.288764 0.000000 0.000000 0.000000 3.151008 1.390183 9.421127 0.498975 3.295249 -3.797370 -0.884807 1.127136 -10.738626 -2.200470 1.374490 1.639259 0.000000 0.000000 0.000000 0.000000 0.000000 0.000000 8.124053 -6.375266 0.274631 -43.611035 -26.055237 -7.576261 86.730432 -84.155673 -0.000000 0.000000 0.000000 0.000000 0.000000 0.000000 0.000000 0.000000 0.000000 0.000000 0.000000 0.000000 0.000000 -6.915124 -2.037664 -13.824254 92.765970 33.221706 51.099548 -105.758669 55.163490 0.000000 0.000000 0.000000 0.000000 0.000000 0.000000 0.000000 0.000000 0.000000 0.000000 0.000000 0.000000 0.000000 
1.291564 15.307155 -1.614070 -1.535386 -29.557207 -5.328629 16.207820 28.449881 -3.134950 -27.753404 -6.389191 -9.205622 -1.104026 15.127367 29.928062 -1.466270 3.555910 -19.480730 0.000000 0.000000 0.000000 -17.128792 -24.057152 -4.269142 24.867208 -1.385128 3.431985 26.118749 -22.780976 25.125113 5.205088 -5.867104 -25.256416 0.000000 0.000000 0.000000 3.151671 1.386758 9.443023 0.495897 3.319443 -3.822048 -0.878165 1.191502 -10.936270 -2.206762 1.349269 1.736317 0.000000 0.000000 0.000000 0.000000 0.000000 0.000000 8.210164 -6.204274 0.100050 -43.601097 -25.633237 -8.713060 85.508020 -85.747944 -0.000000 0.000000 0.000000 0.000000 0.000000 0.000000 0.000000 0.000000 0.000000 0.000000 0.000000 0.000000 0.000000 -6.983564 -2.081018 -13.885803 92.915265 33.117603 51.282731 -106.289417 54.966429 0.000000 0.000000 0.000000 0.000000 0.000000 0.000000 0.000000 0.000000 0.000000 0.000000 0.000000 0.000000 0.000000 
1.295237 15.305788 -1.595794 -1.511973 -29.834686 -5.301447 16.217673 28.463693 -3.106579 -27.726384 -6.292725 -9.158287 -1.134371 15.170426 29.832043 -1.458528 3.637168 -19.384145 0.000000 0.000000 0.000000 -17.127972 -24.035993 -4.336811 24.886617 -1.346313 3.404353 25.974421 -22.787101 25.286510 5.194543 -5.851101 -25.223436 0.000000 0.000000 0.000000 3.148758 1.378565 9.472014 0.493632 3.339182 -3.848998 -0.867455 1.253238 -11.146088 -2.211641 1.322525 1.826432 0.000000 0.000000 0.000000 0.000000 0.000000 0.000000 8.297687 -6.034160 -0.084133 -43.588884 -25.171361 -9.949697 84.018843 -87.458760 -0.000000 0.000000 0.000000 0.000000 0.000000 0.000000 0.000000 0.000000 0.000000 0.000000 0.000000 0.000000 0.000000 -7.051665 -2.120126 -13.945277 93.069537 33.014600 51.462831 -106.817363 54.776411 0.000000 0.000000 0.000000 0.000000 0.000000 0.000000 0.000000 0.000000 0.000000 0.000000 0.000000 0.000000 0.000000 
1.298911 15.304421 -1.577517 -1.488935 -30.114913 -5.271510 16.227559 28.478890 -3.079018 -27.699735 -6.196103 -9.112282 -1.165180 15.213807 29.735610 -1.450683 3.718821 -19.286794 0.000000 0.000000 0.000000 -17.125665 -24.013101 -4.407132 24.906896 -1.307116 3.375544 25.829562 -22.792734 25.447885 5.183859 -5.835343 -25.189812 0.000000 0.000000 0.000000 3.141431 1.364767 9.508137 0.492381 3.353550 -3.877271 -0.851398 1.311375 -11.365540 -2.214346 1.294080 1.906367 0.000000 0.000000 0.000000 0.000000 0.000000 0.000000 8.386153 -5.868624 -0.270965 -43.569214 -24.661253 -11.287485 82.265961 -89.280885 -0.000000 0.000000 0.000000 0.000000 0.000000 0.000000 0.000000 0.000000 0.000000 0.000000 0.000000 0.000000 0.000000 -7.118650 -2.153762 -14.004578 93.228869 32.914587 51.640593 -107.343383 54.593654 0.000000 0.000000 0.000000 0.000000 0.000000 0.000000 0.000000 0.000000 0.000000 0.000000 0.000000 0.000000 0.000000 
1.302876 15.303093 -1.559079 -1.472693 -30.398003 -5.242313 16.237467 28.501524 -3.061421 -27.673404 -6.060848 -9.047366 -1.173154 15.274748 29.617681 -1.442273 3.827102 -19.189070 0.000000 0.000000 0.000000 -17.122760 -23.987013 -4.473597 24.925701 -1.263374 3.348959 25.698915 -22.793565 25.607455 5.173001 -5.811442 -25.160930 0.000000 0.000000 0.000000 3.124204 1.348566 9.547888 0.491798 3.365021 -3.899820 -0.826262 1.364766 -11.561545 -2.214079 1.265755 1.963014 0.000000 0.000000 0.000000 0.000000 0.000000 0.000000 8.471872 -5.730991 -0.406400 -43.551776 -24.184454 -12.502146 -99.366340 -89.132743 180.000000 0.000000 0.000000 0.000000 0.000000 0.000000 0.000000 0.000000 0.000000 0.000000 0.000000 0.000000 0.000000 -7.177157 -2.182440 -14.085435 93.389488 32.811460 51.816497 -107.880119 54.412829 0.000000 0.000000 0.000000 0.000000 0.000000 0.000000 0.000000 0.000000 0.000000 0.000000 0.000000 0.000000 0.000000 
1.306853 15.301766 -1.540634 -1.457168 -30.683620 -5.211881 16.247497 28.525800 -3.044340 -27.646991 -5.923669 -8.982362 -1.180615 15.336629 29.498569 -1.433669 3.936817 -19.090315 0.000000 0.000000 0.000000 -17.118625 -23.959339 -4.541494 24.944871 -1.219100 3.321871 25.568267 -22.793738 25.767134 5.161990 -5.787369 -25.131635 0.000000 0.000000 0.000000 3.103073 1.327442 9.591422 0.492090 3.371698 -3.921247 -0.796075 1.414671 -11.756713 -2.211693 1.235855 2.008243 0.000000 0.000000 0.000000 0.000000 0.000000 0.000000 8.557082 -5.601974 -0.530207 -43.522166 -23.670205 -13.769895 -101.143615 -87.503552 180.000000 0.000000 0.000000 0.000000 0.000000 0.000000 0.000000 0.000000 0.000000 0.000000 0.000000 0.000000 0.000000 -7.233003 -2.205300 -14.169518 93.553172 32.714461 51.989165 -108.415237 54.237700 0.000000 0.000000 0.000000 0.000000 0.000000 0.000000 0.000000 0.000000 0.000000 0.000000 0.000000 0.000000 0.000000 
